<?xml version="1.0" encoding="utf-8"?>
<svg viewBox="0 0 500 500" xmlns="http://www.w3.org/2000/svg">
  <polygon points="300.108 345.412 275.302 11.658 247.91 19.563 219.054 12.006 187.963 344.323 92.709 342.314 248.715 488.342 407.291 339.543" style="fill: rgb(251, 246, 246);"/>
  <g transform="matrix(1, 0, 0, 1, -35.921558, 40.309402)"/>
  <g transform="matrix(1, 0, 0, 1, -35.921558, 40.309402)"/>
  <g transform="matrix(1, 0, 0, 1, -35.921558, 40.309402)"/>
  <g transform="matrix(1, 0, 0, 1, -35.921558, 40.309402)"/>
  <g transform="matrix(1, 0, 0, 1, -35.921558, 40.309402)"/>
  <g transform="matrix(1, 0, 0, 1, -35.921558, 40.309402)"/>
  <g transform="matrix(1, 0, 0, 1, -35.921558, 40.309402)"/>
  <g transform="matrix(1, 0, 0, 1, -35.921558, 40.309402)"/>
  <g transform="matrix(1, 0, 0, 1, -35.921558, 40.309402)"/>
  <g transform="matrix(1, 0, 0, 1, -35.921558, 40.309402)"/>
  <g transform="matrix(1, 0, 0, 1, -35.921558, 40.309402)"/>
  <g transform="matrix(1, 0, 0, 1, -35.921558, 40.309402)"/>
  <g transform="matrix(1, 0, 0, 1, -35.921558, 40.309402)"/>
  <g transform="matrix(1, 0, 0, 1, -35.921558, 40.309402)"/>
  <g transform="matrix(1, 0, 0, 1, -35.921558, 40.309402)"/>
</svg>